<svg width="89" height="89" viewBox="0 0 89 89" fill="none" xmlns="http://www.w3.org/2000/svg">
<g filter="url(#filter0_bd_47_1262)">
<rect x="2" y="44.5" width="58.6899" height="58.6899" transform="rotate(-45 2 44.5)" fill="white" fill-opacity="0.11" shape-rendering="crispEdges"/>
<rect x="2.21759" y="44.5" width="58.3821" height="58.3821" transform="rotate(-45 2.21759 44.5)" stroke="url(#paint0_linear_47_1262)" stroke-width="0.307724" shape-rendering="crispEdges"/>
</g>
<g filter="url(#filter1_bi_47_1262)">
<path d="M34.4545 53.0571C31.973 53.0571 30.0602 52.4453 28.7161 51.2218C27.3892 49.9983 26.674 48.4043 26.5706 46.4398H28.8453C29.1555 49.6106 31.0597 51.196 34.5579 51.196C35.8848 51.196 36.9446 50.903 37.7373 50.3171C38.5472 49.714 38.9522 48.8523 38.9522 47.7322C38.9522 47.2325 38.8574 46.793 38.6679 46.4139C38.4783 46.0348 38.2457 45.7246 37.97 45.4834C37.7115 45.2421 37.3151 45.0181 36.7809 44.8113C36.2467 44.6045 35.747 44.4408 35.2817 44.3202C34.8336 44.1995 34.2133 44.0531 33.4206 43.8807C32.4728 43.674 31.6887 43.4672 31.0683 43.2604C30.4479 43.0364 29.8276 42.7348 29.2072 42.3557C28.5868 41.9766 28.1216 41.494 27.8114 40.9081C27.5184 40.305 27.3719 39.5812 27.3719 38.7368C27.3719 37.2204 27.9406 36.0313 29.078 35.1697C30.2325 34.2908 31.7576 33.8514 33.6532 33.8514C37.8062 33.8514 40.1413 35.7728 40.6582 39.6157H38.4611C38.2888 38.306 37.7976 37.3238 36.9877 36.6689C36.1778 35.9969 35.0835 35.6608 33.7049 35.6608C32.4297 35.6608 31.413 35.9193 30.6547 36.4363C29.9137 36.9533 29.5432 37.6856 29.5432 38.6334C29.5432 39.047 29.6208 39.4175 29.7759 39.7449C29.9482 40.0551 30.1636 40.3222 30.4221 40.5462C30.6978 40.753 31.0511 40.9426 31.4819 41.1149C31.9299 41.2872 32.3694 41.4337 32.8002 41.5544C33.231 41.6577 33.7566 41.7698 34.377 41.8904C35.2386 42.0627 35.9451 42.2264 36.4966 42.3815C37.048 42.5194 37.6598 42.7348 38.3318 43.0277C39.0039 43.3207 39.5209 43.6567 39.8828 44.0358C40.2619 44.415 40.5807 44.9147 40.8392 45.5351C41.1149 46.1382 41.2528 46.8447 41.2528 47.6547C41.2528 49.3435 40.6238 50.6704 39.3658 51.6354C38.125 52.5832 36.488 53.0571 34.4545 53.0571ZM44.4315 52.6952V34.2133H46.7579V42.0713H56.6322V34.2133H58.9586V52.6952H56.6322V43.9583H46.7579V52.6952H44.4315Z" fill="white" fill-opacity="0.4"/>
</g>
<defs>
<filter id="filter0_bd_47_1262" x="-1.07724" y="-0.077239" width="89.1545" height="89.1545" filterUnits="userSpaceOnUse" color-interpolation-filters="sRGB">
<feFlood flood-opacity="0" result="BackgroundImageFix"/>
<feGaussianBlur in="BackgroundImageFix" stdDeviation="1.53862"/>
<feComposite in2="SourceAlpha" operator="in" result="effect1_backgroundBlur_47_1262"/>
<feColorMatrix in="SourceAlpha" type="matrix" values="0 0 0 0 0 0 0 0 0 0 0 0 0 0 0 0 0 0 127 0" result="hardAlpha"/>
<feOffset dx="0.615448" dy="0.307724"/>
<feGaussianBlur stdDeviation="1.2309"/>
<feComposite in2="hardAlpha" operator="out"/>
<feColorMatrix type="matrix" values="0 0 0 0 0 0 0 0 0 0 0 0 0 0 0 0 0 0 0.25 0"/>
<feBlend mode="normal" in2="effect1_backgroundBlur_47_1262" result="effect2_dropShadow_47_1262"/>
<feBlend mode="normal" in="SourceGraphic" in2="effect2_dropShadow_47_1262" result="shape"/>
</filter>
<filter id="filter1_bi_47_1262" x="23.801" y="31.0819" width="37.927" height="24.7447" filterUnits="userSpaceOnUse" color-interpolation-filters="sRGB">
<feFlood flood-opacity="0" result="BackgroundImageFix"/>
<feGaussianBlur in="BackgroundImageFix" stdDeviation="1.38476"/>
<feComposite in2="SourceAlpha" operator="in" result="effect1_backgroundBlur_47_1262"/>
<feBlend mode="normal" in="SourceGraphic" in2="effect1_backgroundBlur_47_1262" result="shape"/>
<feColorMatrix in="SourceAlpha" type="matrix" values="0 0 0 0 0 0 0 0 0 0 0 0 0 0 0 0 0 0 127 0" result="hardAlpha"/>
<feOffset dx="0.307724" dy="1.2309"/>
<feGaussianBlur stdDeviation="0.923172"/>
<feComposite in2="hardAlpha" operator="arithmetic" k2="-1" k3="1"/>
<feColorMatrix type="matrix" values="0 0 0 0 0 0 0 0 0 0 0 0 0 0 0 0 0 0 0.25 0"/>
<feBlend mode="normal" in2="shape" result="effect2_innerShadow_47_1262"/>
</filter>
<linearGradient id="paint0_linear_47_1262" x1="57.4365" y1="49.3969" x2="4.02065" y2="101.169" gradientUnits="userSpaceOnUse">
<stop stop-color="white"/>
<stop offset="1" stop-color="white" stop-opacity="0"/>
</linearGradient>
</defs>
</svg>
